<svg xmlns="http://www.w3.org/2000/svg" width="1200" height="1120" viewBox="0 0 1200 1120"><rect width="1200" height="1120" fill="#eee9df"/><g font-family="Arial" fill="#292723">
<text x="65" y="45" font-size="27" font-weight="bold">WASTE STORAGE / ARCHITECTURAL PLAN</text>
<text x="65" y="73" font-size="14">Metres · floor Z 0 · ceiling 4.80 · wall 0.32 · equipment and service envelopes</text>
<rect x="98.24000000000001" y="172.24" width="543.52" height="801.52" fill="#514b44" stroke="#554e45" stroke-width="1" stroke-dasharray=""/>
<rect x="112" y="186" width="516" height="774" fill="#d2c9b8" stroke="#554e45" stroke-width="1" stroke-dasharray=""/>
<rect x="292.6" y="186" width="154.8" height="774" fill="#e4d6ad" stroke="#c4a55d" stroke-width="1" stroke-dasharray=""/>
<rect x="305.5" y="960.0" width="129" height="13.76" fill="#e4d6ad" stroke="#554e45" stroke-width="1" stroke-dasharray=""/>
<rect x="318.4" y="172.24" width="103.2" height="13.76" fill="#e4d6ad" stroke="#554e45" stroke-width="1" stroke-dasharray=""/>
<rect x="628" y="831.0" width="13.76" height="51.6" fill="#e4d6ad" stroke="#554e45" stroke-width="1" stroke-dasharray=""/>
<rect x="112" y="750.16" width="165.55" height="6.88" fill="#898072" stroke="#554e45" stroke-width="1" stroke-dasharray=""/>
<rect x="112" y="578.16" width="165.55" height="6.88" fill="#898072" stroke="#554e45" stroke-width="1" stroke-dasharray=""/>
<rect x="277.765" y="709.525" width="5.59" height="40.85" fill="#514b44" stroke="#554e45" stroke-width="1" stroke-dasharray=""/>
<polyline points="282.28,748.87 282.28,586.33" fill="none" stroke="#777063" stroke-width="1" stroke-dasharray="3 3"/>
<rect x="112" y="552.3599999999999" width="165.55" height="6.88" fill="#898072" stroke="#554e45" stroke-width="1" stroke-dasharray=""/>
<rect x="112" y="380.36" width="165.55" height="6.88" fill="#898072" stroke="#554e45" stroke-width="1" stroke-dasharray=""/>
<rect x="277.765" y="511.725" width="5.59" height="40.85" fill="#514b44" stroke="#554e45" stroke-width="1" stroke-dasharray=""/>
<polyline points="282.28,551.0699999999999 282.28,388.53" fill="none" stroke="#777063" stroke-width="1" stroke-dasharray="3 3"/>
<rect x="462.45" y="750.16" width="165.55" height="6.88" fill="#898072" stroke="#554e45" stroke-width="1" stroke-dasharray=""/>
<rect x="462.45" y="578.16" width="165.55" height="6.88" fill="#898072" stroke="#554e45" stroke-width="1" stroke-dasharray=""/>
<rect x="456.645" y="709.525" width="5.59" height="40.85" fill="#514b44" stroke="#554e45" stroke-width="1" stroke-dasharray=""/>
<polyline points="457.72,748.87 457.72,586.33" fill="none" stroke="#777063" stroke-width="1" stroke-dasharray="3 3"/>
<rect x="462.45" y="552.3599999999999" width="165.55" height="6.88" fill="#898072" stroke="#554e45" stroke-width="1" stroke-dasharray=""/>
<rect x="462.45" y="380.36" width="165.55" height="6.88" fill="#898072" stroke="#554e45" stroke-width="1" stroke-dasharray=""/>
<rect x="456.645" y="511.725" width="5.59" height="40.85" fill="#514b44" stroke="#554e45" stroke-width="1" stroke-dasharray=""/>
<polyline points="457.72,551.0699999999999 457.72,388.53" fill="none" stroke="#777063" stroke-width="1" stroke-dasharray="3 3"/>
<rect x="151.55998277664185" y="698.2374958992004" width="45.580018043518066" height="50.52500820159912" fill="#b9926f" stroke="#554e45" stroke-width="1" stroke-dasharray=""/>
<text x="152.84998277664187" y="723.5" font-size="10">RA01</text>
<circle cx="174.34999179840088" cy="723.5" r="18.49" fill="none" stroke="#554e45"/>
<rect x="151.55998277664185" y="642.3374876976013" width="45.580018043518066" height="50.52500820159912" fill="#b9926f" stroke="#554e45" stroke-width="1" stroke-dasharray=""/>
<text x="152.84998277664187" y="667.5999917984009" font-size="10">RA02</text>
<circle cx="174.34999179840088" cy="667.5999917984009" r="18.49" fill="none" stroke="#554e45"/>
<rect x="151.55998277664185" y="586.4375" width="45.580018043518066" height="50.52498769760132" fill="#b9926f" stroke="#554e45" stroke-width="1" stroke-dasharray=""/>
<text x="152.84998277664187" y="611.6999938488007" font-size="10">RA03</text>
<circle cx="174.34999179840088" cy="611.6999835968018" r="18.49" fill="none" stroke="#554e45"/>
<rect x="141.2399926185608" y="466.4675016403198" width="57.6200065612793" height="62.56499671936035" fill="#b9926f" stroke="#554e45" stroke-width="1" stroke-dasharray=""/>
<text x="142.5299926185608" y="497.75" font-size="10">SC01</text>
<circle cx="170.04999589920044" cy="497.75" r="24.509999999999998" fill="none" stroke="#554e45"/>
<rect x="141.2399926185608" y="397.6674852371216" width="57.6200065612793" height="62.56499671936035" fill="#b9926f" stroke="#554e45" stroke-width="1" stroke-dasharray=""/>
<text x="142.5299926185608" y="428.94998359680176" font-size="10">SC02</text>
<circle cx="170.04999589920044" cy="428.94998359680176" r="24.509999999999998" fill="none" stroke="#554e45"/>
<rect x="505.66499876976013" y="670.6099991798401" width="94.16999220848083" height="38.27001476287842" fill="#b9926f" stroke="#554e45" stroke-width="1" stroke-dasharray=""/>
<text x="506.9549987697601" y="689.7450065612793" font-size="10">DR01</text>
<rect x="505.66499876976013" y="626.319990158081" width="94.16999220848083" height="38.27001476287842" fill="#b9926f" stroke="#554e45" stroke-width="1" stroke-dasharray=""/>
<text x="506.9549987697601" y="645.4549975395203" font-size="10">DR02</text>
<rect x="544.8809962272644" y="407.66498851776123" width="49.81306838989258" height="94.17002296447754" fill="#b9926f" stroke="#554e45" stroke-width="1" stroke-dasharray=""/>
<text x="546.1709962272644" y="454.75" font-size="10">QH01</text>
<rect x="495.9900028705597" y="763.4900131225586" width="40.420002460479736" height="70.94014167785645" fill="#b9926f" stroke="#554e45" stroke-width="1" stroke-dasharray=""/>
<text x="497.28000287055966" y="798.9600839614868" font-size="10">CT01</text>
<rect x="176.93000984191895" y="855.7250020503998" width="33.53999876976013" height="66.64999794960022" fill="#b9926f" stroke="#554e45" stroke-width="1" stroke-dasharray=""/>
<text x="178.22000984191897" y="889.0500010251999" font-size="10">IM01</text>
<rect x="127.47998523712158" y="245.125" width="112.44502091407776" height="51.49255084991455" fill="#b9926f" stroke="#554e45" stroke-width="1" stroke-dasharray=""/>
<text x="128.7699852371216" y="270.8712754249573" font-size="10">VF01</text>
<rect x="529.1000123023987" y="223.41003608703613" width="73.09999179840088" height="32.679927825927734" fill="#b9926f" stroke="#554e45" stroke-width="1" stroke-dasharray=""/>
<text x="530.3900123023986" y="239.75" font-size="10">WB01</text>
<rect x="204.02" y="471.95" width="38.7" height="38.7" fill="none" stroke="#946931" stroke-width="1" stroke-dasharray="5 3"/>
<rect x="204.02" y="411.75" width="38.7" height="40.85" fill="none" stroke="#946931" stroke-width="1" stroke-dasharray="5 3"/>
<rect x="506.525" y="709.525" width="92.45" height="38.7" fill="none" stroke="#946931" stroke-width="1" stroke-dasharray="5 3"/>
<rect x="506.525" y="586.9749999999999" width="92.45" height="38.7" fill="none" stroke="#946931" stroke-width="1" stroke-dasharray="5 3"/>
<rect x="198" y="704.15" width="38.7" height="38.7" fill="none" stroke="#946931" stroke-width="1" stroke-dasharray="5 3"/>
<rect x="198" y="648.25" width="38.7" height="38.7" fill="none" stroke="#946931" stroke-width="1" stroke-dasharray="5 3"/>
<rect x="198" y="592.3499999999999" width="38.7" height="38.7" fill="none" stroke="#946931" stroke-width="1" stroke-dasharray="5 3"/>
<rect x="505.02" y="409.6" width="38.7" height="90.3" fill="none" stroke="#946931" stroke-width="1" stroke-dasharray="5 3"/>
<rect x="127.04999999999998" y="299.52" width="109.64999999999999" height="38.7" fill="none" stroke="#946931" stroke-width="1" stroke-dasharray="5 3"/>
<rect x="529.1" y="256.0899999999999" width="73.1" height="38.7" fill="none" stroke="#946931" stroke-width="1" stroke-dasharray="5 3"/>
<rect x="114.15" y="792.3" width="152.65" height="150.5" fill="none" stroke="#514b44" stroke-width="1" stroke-dasharray=""/>
<text x="124.9" y="815.95" font-size="11">IM01 / INVENTORY</text>
<polyline points="266.8,942.8 266.8,889.05" fill="none" stroke="#514b44" stroke-width="3" stroke-dasharray=""/>
<polyline points="266.8,841.75 266.8,792.3" fill="none" stroke="#514b44" stroke-width="3" stroke-dasharray=""/>
<text x="271.96000000000004" y="856.8" font-size="9">1.10</text>
<polyline points="263.36,838.955 214.34,838.955" fill="none" stroke="#514b44" stroke-width="3" stroke-dasharray=""/>
<polyline points="643.48,828.205 697.23,828.205" fill="none" stroke="#514b44" stroke-width="3" stroke-dasharray=""/>
<polyline points="643.48,828.205 643.48,881.955" fill="none" stroke="#514b44" stroke-width="1" stroke-dasharray="3 3"/>
<circle cx="234.55" cy="532.1500000000001" r="10" fill="#a8663b"/>
<polyline points="234.55,532.1500000000001 278.625,576.2249999999999" fill="none" stroke="#a8663b" stroke-width="4" stroke-dasharray=""/>
<text x="241.0" y="530" font-size="10">HJ01</text>
<polyline points="370,955.7 370,190.30000000000007" fill="none" stroke="#79573c" stroke-width="1" stroke-dasharray="5 3"/>
<polyline points="370,856.8 628,856.8" fill="none" stroke="#79573c" stroke-width="1" stroke-dasharray="5 3"/>
<polyline points="370,676.2 219.5,676.2" fill="none" stroke="#79573c" stroke-width="1" stroke-dasharray="5 3"/>
<polyline points="370,487 241,487" fill="none" stroke="#79573c" stroke-width="1" stroke-dasharray="5 3"/>
<polyline points="370,671.9 490.4,671.9" fill="none" stroke="#79573c" stroke-width="1" stroke-dasharray="5 3"/>
<polyline points="370,487 505.45,487" fill="none" stroke="#79573c" stroke-width="1" stroke-dasharray="5 3"/>
<polyline points="370,272 264.65,272 264.65,323.6 180.79999999999998,323.6" fill="none" stroke="#79573c" stroke-width="1" stroke-dasharray="5 3"/>
<polyline points="370,272 511.9,272" fill="none" stroke="#79573c" stroke-width="1" stroke-dasharray="5 3"/>
<circle cx="370" cy="852.5" r="77.4" fill="none" stroke="#ae843b" stroke-dasharray="7 4"/>
<circle cx="370" cy="272" r="64.5" fill="none" stroke="#ae843b" stroke-dasharray="7 4"/>
<text x="305.5" y="588.05" font-size="11">3.60 CLEAR SPINE</text>
<text x="303.35" y="1002.14" font-size="11">WS_RECEIVING 3.00 × 3.20</text>
<text x="299.05" y="147.30000000000007" font-size="11">WS_DISPATCH 2.40 × 2.80</text>
<text x="649.5" y="788.0" font-size="11">WS_PERSONNEL</text>
<text x="649.5" y="805.2" font-size="11">1.20 × 2.30</text>
<polyline points="112,115.05000000000007 628,115.05000000000007" fill="none" stroke="#514b44" stroke-width="1" stroke-dasharray=""/>
<text x="305.5" y="108.60000000000002" font-size="13">12.00 CLEAR</text>
<polyline points="64.69999999999999,960 64.69999999999999,186" fill="none" stroke="#514b44" stroke-width="1" stroke-dasharray=""/>
<text x="66.85000000000002" y="573" font-size="12">18.00</text>
<text x="755" y="118" font-size="13" font-weight="700">DESIGN + MEASURED INTERFACE</text>
<text x="755" y="141" font-size="11" font-weight="400">Floor footprint 12.64 × 18.64 incl. walls.</text>
<text x="755" y="164" font-size="11" font-weight="400">Receiving center (0,0,0), outward −Y.</text>
<text x="755" y="187" font-size="11" font-weight="400">Dispatch center (0,18,0), outward +Y.</text>
<text x="755" y="210" font-size="11" font-weight="400">Personnel center (6,2.4,0), outward +X.</text>
<text x="755" y="233" font-size="11" font-weight="400">All opening dimensions width × height.</text>
<text x="755" y="256" font-size="11" font-weight="400"></text>
<text x="755" y="279" font-size="13" font-weight="700">EQUIPMENT / FUNCTIONS</text>
<text x="755" y="302" font-size="11" font-weight="400">RA01–03: three residue overpacks.</text>
<text x="755" y="325" font-size="11" font-weight="400">SC01–02: two tall shielded casks.</text>
<text x="755" y="348" font-size="11" font-weight="400">DR01–02: sealed dry containers.</text>
<text x="755" y="371" font-size="11" font-weight="400">QH01: quarantine; open inspectable lid.</text>
<text x="755" y="394" font-size="11" font-weight="400">CT01: 1.00 × 1.80 transfer cart envelope.</text>
<text x="755" y="417" font-size="11" font-weight="400">HJ01: floor mounted manual handling jib.</text>
<text x="755" y="440" font-size="11" font-weight="400">VF01: filter / fan extraction skid.</text>
<text x="755" y="463" font-size="11" font-weight="400">IM01: inventory booth / scan / dose.</text>
<text x="755" y="486" font-size="11" font-weight="400">WB01: seal and container maintenance.</text>
<text x="755" y="509" font-size="11" font-weight="400"></text>
<text x="755" y="532" font-size="13" font-weight="700">WORKING + CIRCULATION</text>
<text x="755" y="555" font-size="11" font-weight="400">Dashed ochre boxes: ≥0.90 service strips.</text>
<text x="755" y="578" font-size="11" font-weight="400">Dashed brown lines: sampled player routes.</text>
<text x="755" y="601" font-size="11" font-weight="400">Cart spine 3.60; reserved turns Ø3.60/3.00.</text>
<text x="755" y="624" font-size="11" font-weight="400">Player audit uses 0.60 × 0.60 × 1.825 body.</text>
<text x="755" y="647" font-size="11" font-weight="400">Cart geometry and actual sweeps separately audited.</text>
<text x="755" y="670" font-size="11" font-weight="400"></text>
<text x="755" y="693" font-size="13" font-weight="700">ELECTRICAL PROPOSAL</text>
<text x="755" y="716" font-size="11" font-weight="400">Waste origin there = (0,16.97,0), Rz 0.</text>
<text x="755" y="739" font-size="11" font-weight="400">Waste exterior −0.32 meets D02 exterior 16.65.</text>
<text x="755" y="762" font-size="11" font-weight="400">Electrical owns receiving floor Y−.32…0.</text>
<text x="755" y="785" font-size="11" font-weight="400"></text>
<text x="755" y="808" font-size="13" font-weight="700">EXACT UTILITY SOCKET CENTERS</text>
<text x="755" y="831" font-size="11" font-weight="400">WS_POWER (6.32,16.8,3.6), +X; 0.20 × 0.20</text>
<text x="755" y="854" font-size="11" font-weight="400">WS_EXTRACT (−4.8,18.32,4), +Y; 0.65 × 0.60</text>
<text x="755" y="877" font-size="11" font-weight="400">WS_DATA (−6.32,1.2,2.8), −X; 0.12 × 0.12</text>
<text x="755" y="900" font-size="11" font-weight="400">Utilities and onward networks remain unbound.</text>
<text x="65" y="1080" font-size="12">Architectural / gameplay intent. No neighboring section modified. Scene measurements and cold-open evidence govern acceptance.</text></g></svg>