<svg xmlns="http://www.w3.org/2000/svg" width="1600" height="900" viewBox="0 0 1600 900"><defs><linearGradient id="bg" x1="0" y1="0" x2="1" y2="1"><stop stop-color="#0b1416"/><stop offset="1" stop-color="#182528"/></linearGradient></defs><rect width="1600" height="900" fill="url(#bg)"/><rect x="24" y="24" width="1552" height="852" rx="18" fill="none" stroke="#30464a" stroke-width="2"/><text x="58" y="72" fill="#f2f1e9" font-family="Arial,Helvetica,sans-serif" font-size="38" font-weight="700">SPAWN OVERHEAD PLAN</text><text x="58" y="106" fill="#d9aa38" font-family="Arial,Helvetica,sans-serif" font-size="17" letter-spacing="2">THREE-WAY READ AND CLEAR FOUR-PLAYER CIRCULATION</text><rect x="52" y="140" width="1000" height="610" rx="12" fill="#111d20" stroke="#2f4549"/><text x="72" y="174" fill="#f2f1e9" font-family="Arial,Helvetica,sans-serif" font-size="21" font-weight="700">OVERHEAD FUNCTIONAL PLAN</text><rect x="110" y="200" width="880" height="500" fill="#c5c1b5"/>
<rect x="425" y="245" width="250" height="400" fill="#596364"/>
<rect x="145" y="330" width="280" height="260" fill="#314c4a"/>
<rect x="675" y="285" width="280" height="350" fill="#314c4a"/>
<rect x="500" y="190" width="100" height="65" fill="#d4a22e"/>
<text x="225" y="460" fill="#f1efe7" font-family="Arial" font-size="26" font-weight="700">BRIEFING</text>
<text x="490" y="455" fill="#f1efe7" font-family="Arial" font-size="22" font-weight="700">HALL</text>
<text x="752" y="455" fill="#f1efe7" font-family="Arial" font-size="26" font-weight="700">LOCKERS</text>
<text x="505" y="230" fill="#263234" font-family="Arial" font-size="16" font-weight="700">OPS EXIT</text>
<circle cx="815" cy="455" r="55" fill="#25383a" stroke="#d5a42f" stroke-width="8"/>
<g fill="#d5a42f"><rect x="700" y="330" width="42" height="80"/><rect x="885" y="330" width="42" height="80"/><rect x="700" y="520" width="42" height="80"/><rect x="885" y="520" width="42" height="80"/></g>
<circle cx="515" cy="570" r="14" fill="#d5a42f"/><circle cx="545" cy="570" r="14" fill="#d5a42f"/><circle cx="575" cy="570" r="14" fill="#d5a42f"/><circle cx="605" cy="570" r="14" fill="#d5a42f"/>
<path d="M560 555 L560 300" stroke="#71c98a" stroke-width="8" marker-end="url(#x)"/>
<path d="M500 480 L310 480" stroke="#7ab7d0" stroke-width="8"/>
<path d="M620 480 L815 480" stroke="#7ab7d0" stroke-width="8"/><rect x="1080" y="140" width="460" height="610" rx="12" fill="#111d20" stroke="#2f4549"/><text x="1100" y="174" fill="#f2f1e9" font-family="Arial,Helvetica,sans-serif" font-size="21" font-weight="700">PLAN PRIORITIES</text><text x="1105" y="185" fill="#dce4e2" font-family="Arial,Helvetica,sans-serif" font-size="17" font-weight="400">Spawn gather zone</text>
<text x="1105" y="212" fill="#dce4e2" font-family="Arial,Helvetica,sans-serif" font-size="17" font-weight="400">• four players fit without prop collision</text>
<text x="1105" y="239" fill="#dce4e2" font-family="Arial,Helvetica,sans-serif" font-size="17" font-weight="400">• leave center free</text>
<text x="1105" y="266" fill="#dce4e2" font-family="Arial,Helvetica,sans-serif" font-size="17" font-weight="400"></text>
<text x="1105" y="293" fill="#dce4e2" font-family="Arial,Helvetica,sans-serif" font-size="17" font-weight="400">Left branch</text>
<text x="1105" y="320" fill="#dce4e2" font-family="Arial,Helvetica,sans-serif" font-size="17" font-weight="400">• optional briefing</text>
<text x="1105" y="347" fill="#dce4e2" font-family="Arial,Helvetica,sans-serif" font-size="17" font-weight="400">• immediate screen/chair read</text>
<text x="1105" y="374" fill="#dce4e2" font-family="Arial,Helvetica,sans-serif" font-size="17" font-weight="400"></text>
<text x="1105" y="401" fill="#dce4e2" font-family="Arial,Helvetica,sans-serif" font-size="17" font-weight="400">Right branch</text>
<text x="1105" y="428" fill="#dce4e2" font-family="Arial,Helvetica,sans-serif" font-size="17" font-weight="400">• locker/PPE hero room</text>
<text x="1105" y="455" fill="#dce4e2" font-family="Arial,Helvetica,sans-serif" font-size="17" font-weight="400">• chamber centered</text>
<text x="1105" y="482" fill="#dce4e2" font-family="Arial,Helvetica,sans-serif" font-size="17" font-weight="400">• four bays readable from entry</text>
<text x="1105" y="509" fill="#dce4e2" font-family="Arial,Helvetica,sans-serif" font-size="17" font-weight="400"></text>
<text x="1105" y="536" fill="#dce4e2" font-family="Arial,Helvetica,sans-serif" font-size="17" font-weight="400">Forward</text>
<text x="1105" y="563" fill="#dce4e2" font-family="Arial,Helvetica,sans-serif" font-size="17" font-weight="400">• heaviest door</text>
<text x="1105" y="590" fill="#dce4e2" font-family="Arial,Helvetica,sans-serif" font-size="17" font-weight="400">• dose checkpoint beside threshold</text>
<text x="1105" y="617" fill="#dce4e2" font-family="Arial,Helvetica,sans-serif" font-size="17" font-weight="400"></text>
<text x="1105" y="644" fill="#dce4e2" font-family="Arial,Helvetica,sans-serif" font-size="17" font-weight="400">Do not move major functions just to improve</text>
<text x="1105" y="671" fill="#dce4e2" font-family="Arial,Helvetica,sans-serif" font-size="17" font-weight="400">a beauty render. Gameplay read wins.</text><text x="58" y="852" fill="#87999b" font-family="Arial,Helvetica,sans-serif" font-size="14">CRITICAL SHIFT — SPAWN ROOM REFERENCE — BELIEVABLE FIRST • STYLIZED SECOND • READABLE ALWAYS</text></svg>